<?xml version="1.0" encoding="utf-8"?>
<svg viewBox="0 0 320 280" xmlns="http://www.w3.org/2000/svg" xmlns:bx="https://boxy-svg.com">
  <path d="M 98.959 27.71 L 148.959 27.71 L 148.91 165.93 L 132.81 169.28 L 119.61 173.469 L 108.61 179.332 L 98.91 187.71 L 98.959 27.71 Z" style="fill: rgb(166, 128, 106);"/>
  <path d="M 151.91 101.71 L 201.91 101.71 L 201.91 164.71 L 162.81 165.71 L 151.91 166.71 L 151.91 101.71 Z" style="fill: rgb(166, 128, 106);" bx:origin="0.5 0.5"/>
  <path d="M 204.386 101.71 L 254.386 101.71 L 254.386 173.099 L 231.55 168.797 L 204.41 164.71 L 204.386 101.71 Z" style="fill: rgb(166, 128, 106);"/>
  <path d="M 256.445 30.71 L 306.445 30.71 L 306.445 190.71 L 291.201 183.735 L 275.208 178.112 L 256.445 173.493 L 256.445 30.71 Z" style="fill: rgb(166, 128, 106);"/>
  <path d="M 43.825 128.733 L 93.825 128.733 L 91.511 193.831 L 71.762 209.905 L 65.142 212.39 L 58.899 216.146 L 54.072 220.939 L 48.932 226.473 L 43.887 230.293 L 43.825 128.733 Z" style="fill: rgb(166, 128, 106);" transform="matrix(0.624722, -0.780847, 0.780847, 0.624722, -114.343708, 121.109039)"/>
  <path d="M 305.832 212.629 C 305.832 234.533 235.608 252.289 182.413 252.289 C 129.218 252.289 100.442 234.533 100.442 212.629 C 100.442 190.725 129.218 172.969 182.413 172.969 C 235.608 172.969 305.832 190.725 305.832 212.629 Z" style="stroke-width: 8px; stroke: rgb(166, 128, 106); fill: rgba(133, 186, 102, 0);"/>
  <path d="M 273.487 212.456 C 273.487 227.921 222.2 240.456 183.351 240.456 C 144.502 240.456 123.487 227.921 123.487 212.456 C 123.487 196.991 144.502 184.456 183.351 184.456 C 222.2 184.456 273.487 196.991 273.487 212.456 Z" style="stroke-width: 3px; stroke: rgb(166, 128, 106); fill: rgba(255, 255, 255, 0);"/>
  <path d="M 127.555 212.415 L 169.028 204.711 L 226.422 215.125 L 270.555 211.835" style="fill: rgba(216, 216, 216, 0); stroke: rgb(166, 128, 106);"/>
  <g transform="matrix(1, 0, 0, 1, -83.892616, -152.766541)">
    <circle cx="250.089" cy="373.021" r="7.5" style="stroke: rgb(166, 128, 106); fill: rgb(166, 128, 106);"/>
    <circle cx="284.536" cy="352.377" r="7.5" style="stroke: rgb(166, 128, 106); fill: rgb(166, 128, 106);"/>
    <circle cx="316.391" cy="375.263" r="4" style="stroke: rgb(166, 128, 106); fill: rgb(166, 128, 106);"/>
    <circle cx="249.152" cy="350.409" r="4" style="stroke: rgb(166, 128, 106); fill: rgb(166, 128, 106);"/>
    <circle cx="282.318" cy="378.797" r="5" style="stroke: rgb(166, 128, 106); fill: rgb(166, 128, 106);"/>
    <circle cx="318.679" cy="355.255" r="5" style="stroke: rgb(166, 128, 106); fill: rgb(166, 128, 106);"/>
  </g>
</svg>